<?xml version="1.0" encoding="UTF-8" standalone="no"?>
<!DOCTYPE svg PUBLIC "-//W3C//DTD SVG 1.1//EN"
 "http://www.w3.org/Graphics/SVG/1.1/DTD/svg11.dtd">
<!-- Generated by graphviz version 15.1.0 (20260618.0150)
 -->
<!-- Title: Architecture Pages: 1 -->
<svg width="1413pt" height="614pt"
 viewBox="0.00 0.00 1413.00 614.00" xmlns="http://www.w3.org/2000/svg" xmlns:xlink="http://www.w3.org/1999/xlink">
<g id="graph0" class="graph" transform="scale(1 1) rotate(0) translate(57.6 556.73)">
<title>Architecture</title>
<polygon fill="#fafafa" stroke="none" points="-57.6,57.6 -57.6,-556.73 1355.22,-556.73 1355.22,57.6 -57.6,57.6"/>
<g id="clust1" class="cluster">
<title>cluster_phone</title>
<polygon fill="#e3f2fd" stroke="#1565c0" stroke-width="2.5" points="8,-384.75 8,-491.13 458,-491.13 458,-384.75 8,-384.75"/>
<text xml:space="preserve" text-anchor="middle" x="233" y="-474.78" font-family="Helvetica Bold" font-size="13.00" fill="#0d47a1">Your Phone &#160;(Flutter App)</text>
</g>
<!-- Customer -->
<g id="node1" class="node">
<title>Customer</title>
<ellipse fill="#bbdefb" stroke="#1565c0" stroke-width="2" cx="69" cy="-416.44" rx="53.21" ry="23.69"/>
<text xml:space="preserve" text-anchor="middle" x="69" y="-417.79" font-family="Helvetica,sans-Serif" font-size="12.00" fill="#0d47a1">Customer</text>
<text xml:space="preserve" text-anchor="middle" x="69" y="-405.04" font-family="Helvetica,sans-Serif" font-size="12.00" fill="#0d47a1">Dashboard</text>
</g>
<!-- Keycloak -->
<g id="node4" class="node">
<title>Keycloak</title>
<path fill="#ede7f6" stroke="#4527a0" stroke-width="2" d="M307,-279C307,-279 159,-279 159,-279 153,-279 147,-273 147,-267 147,-267 147,-219.25 147,-219.25 147,-213.25 153,-207.25 159,-207.25 159,-207.25 307,-207.25 307,-207.25 313,-207.25 319,-213.25 319,-219.25 319,-219.25 319,-267 319,-267 319,-273 313,-279 307,-279"/>
<text xml:space="preserve" text-anchor="middle" x="233" y="-263.6" font-family="Helvetica Bold" font-size="12.00" fill="#311b92">KEYCLOAK</text>
<text xml:space="preserve" text-anchor="middle" x="233" y="-250.85" font-family="Helvetica Bold" font-size="12.00" fill="#311b92">Security Guard</text>
<text xml:space="preserve" text-anchor="middle" x="233" y="-238.1" font-family="Helvetica Bold" font-size="12.00" fill="#311b92">─────────────</text>
<text xml:space="preserve" text-anchor="middle" x="233" y="-225.35" font-family="Helvetica Bold" font-size="12.00" fill="#311b92">Checks passwords</text>
<text xml:space="preserve" text-anchor="middle" x="233" y="-212.6" font-family="Helvetica Bold" font-size="12.00" fill="#311b92">Issues digital keys</text>
</g>
<!-- Customer&#45;&gt;Keycloak -->
<g id="edge1" class="edge">
<title>Customer&#45;&gt;Keycloak</title>
<path fill="none" stroke="#6a1b9a" stroke-width="2.5" d="M79.75,-392.36C99.99,-348.26 112.33,-332.94 172.02,-288.01"/>
<polygon fill="#6a1b9a" stroke="#6a1b9a" stroke-width="2.5" points="173.93,-290.96 179.84,-282.17 169.73,-285.35 173.93,-290.96"/>
<text xml:space="preserve" text-anchor="middle" x="133.62" y="-343.25" font-family="Helvetica,sans-Serif" font-size="10.00" fill="#4a148c"> &#160;STEP 1</text>
<text xml:space="preserve" text-anchor="middle" x="133.62" y="-332" font-family="Helvetica,sans-Serif" font-size="10.00" fill="#4a148c"> &#160;You log in with</text>
<text xml:space="preserve" text-anchor="middle" x="133.62" y="-320.75" font-family="Helvetica,sans-Serif" font-size="10.00" fill="#4a148c"> &#160;email + password</text>
</g>
<!-- Business -->
<g id="node2" class="node">
<title>Business</title>
<ellipse fill="#bbdefb" stroke="#1565c0" stroke-width="2" cx="233" cy="-416.44" rx="53.21" ry="23.69"/>
<text xml:space="preserve" text-anchor="middle" x="233" y="-417.79" font-family="Helvetica,sans-Serif" font-size="12.00" fill="#0d47a1">Business</text>
<text xml:space="preserve" text-anchor="middle" x="233" y="-405.04" font-family="Helvetica,sans-Serif" font-size="12.00" fill="#0d47a1">Dashboard</text>
</g>
<!-- Business&#45;&gt;Keycloak -->
<g id="edge2" class="edge">
<title>Business&#45;&gt;Keycloak</title>
<path fill="none" stroke="#6a1b9a" stroke-width="2" d="M222.9,-392.43C205.1,-349.1 202.7,-333.29 215.71,-292.23"/>
<polygon fill="#6a1b9a" stroke="#6a1b9a" stroke-width="2" points="219.01,-293.4 218.83,-282.81 212.36,-291.2 219.01,-293.4"/>
</g>
<!-- Admin -->
<g id="node3" class="node">
<title>Admin</title>
<ellipse fill="#bbdefb" stroke="#1565c0" stroke-width="2" cx="397" cy="-416.44" rx="53.21" ry="23.69"/>
<text xml:space="preserve" text-anchor="middle" x="397" y="-417.79" font-family="Helvetica,sans-Serif" font-size="12.00" fill="#0d47a1">Admin</text>
<text xml:space="preserve" text-anchor="middle" x="397" y="-405.04" font-family="Helvetica,sans-Serif" font-size="12.00" fill="#0d47a1">Dashboard</text>
</g>
<!-- Admin&#45;&gt;Keycloak -->
<g id="edge3" class="edge">
<title>Admin&#45;&gt;Keycloak</title>
<path fill="none" stroke="#6a1b9a" stroke-width="2" d="M364.14,-397.05C289.44,-352.65 271.12,-337.8 251.4,-291.46"/>
<polygon fill="#6a1b9a" stroke="#6a1b9a" stroke-width="2" points="254.75,-290.42 247.74,-282.48 248.27,-293.06 254.75,-290.42"/>
</g>
<!-- JWTStore -->
<g id="node5" class="node">
<title>JWTStore</title>
<polygon fill="#fff9c4" stroke="#f57f17" stroke-width="2" points="790.12,-277.12 453.88,-277.12 453.88,-209.12 796.12,-209.12 796.12,-271.12 790.12,-277.12"/>
<polyline fill="none" stroke="#f57f17" stroke-width="2" points="790.12,-277.12 790.12,-271.12"/>
<polyline fill="none" stroke="#f57f17" stroke-width="2" points="796.12,-271.12 790.12,-271.12"/>
<text xml:space="preserve" text-anchor="middle" x="625" y="-262.68" font-family="Helvetica,sans-Serif" font-size="11.00" fill="#e65100">Digital Key (JWT Token)</text>
<text xml:space="preserve" text-anchor="middle" x="625" y="-250.68" font-family="Helvetica,sans-Serif" font-size="11.00" fill="#e65100">stored securely inside the phone</text>
<text xml:space="preserve" text-anchor="middle" x="625" y="-238.68" font-family="Helvetica,sans-Serif" font-size="11.00" fill="#e65100">─────────────────────────────</text>
<text xml:space="preserve" text-anchor="middle" x="625" y="-226.68" font-family="Helvetica,sans-Serif" font-size="11.00" fill="#e65100">Contains: who you are + your role</text>
<text xml:space="preserve" text-anchor="middle" x="625" y="-214.68" font-family="Helvetica,sans-Serif" font-size="11.00" fill="#e65100">Expires in 5 minutes</text>
</g>
<!-- Keycloak&#45;&gt;JWTStore -->
<g id="edge4" class="edge">
<title>Keycloak&#45;&gt;JWTStore</title>
<path fill="none" stroke="#6a1b9a" stroke-width="2.5" d="M319.79,-243.12C351.67,-243.12 384.06,-243.12 439.69,-243.12"/>
<polygon fill="#6a1b9a" stroke="#6a1b9a" stroke-width="2.5" points="439.34,-246.63 449.34,-243.13 439.34,-239.63 439.34,-246.63"/>
</g>
<!-- Symfony -->
<g id="node6" class="node">
<title>Symfony</title>
<path fill="#e8f5e9" stroke="#1b5e20" stroke-width="2" d="M1160,-279C1160,-279 964,-279 964,-279 958,-279 952,-273 952,-267 952,-267 952,-219.25 952,-219.25 952,-213.25 958,-207.25 964,-207.25 964,-207.25 1160,-207.25 1160,-207.25 1166,-207.25 1172,-213.25 1172,-219.25 1172,-219.25 1172,-267 1172,-267 1172,-273 1166,-279 1160,-279"/>
<text xml:space="preserve" text-anchor="middle" x="1062" y="-263.6" font-family="Helvetica Bold" font-size="12.00" fill="#1b5e20">SYMFONY API</text>
<text xml:space="preserve" text-anchor="middle" x="1062" y="-250.85" font-family="Helvetica Bold" font-size="12.00" fill="#1b5e20">Brain of the System</text>
<text xml:space="preserve" text-anchor="middle" x="1062" y="-238.1" font-family="Helvetica Bold" font-size="12.00" fill="#1b5e20">─────────────────</text>
<text xml:space="preserve" text-anchor="middle" x="1062" y="-225.35" font-family="Helvetica Bold" font-size="12.00" fill="#1b5e20">All business logic:</text>
<text xml:space="preserve" text-anchor="middle" x="1062" y="-212.6" font-family="Helvetica Bold" font-size="12.00" fill="#1b5e20">orders, offers, users</text>
</g>
<!-- JWTStore&#45;&gt;Symfony -->
<g id="edge5" class="edge">
<title>JWTStore&#45;&gt;Symfony</title>
<path fill="none" stroke="#2e7d32" stroke-width="2.5" d="M796.94,-243.12C862.98,-243.12 903.35,-243.12 937.81,-243.12"/>
<polygon fill="#2e7d32" stroke="#2e7d32" stroke-width="2.5" points="937.49,-246.63 947.49,-243.13 937.49,-239.63 937.49,-246.63"/>
</g>
<!-- Symfony&#45;&gt;Keycloak -->
<g id="edge6" class="edge">
<title>Symfony&#45;&gt;Keycloak</title>
<path fill="none" stroke="#6a1b9a" stroke-width="1.8" stroke-dasharray="5,2" d="M246.07,-243.12C813.04,-243.12 815.18,-243.12 1061.64,-243.12"/>
<polygon fill="#6a1b9a" stroke="#6a1b9a" stroke-width="1.8" points="246.15,-239.63 236.15,-243.13 246.15,-246.63 246.15,-239.63"/>
<text xml:space="preserve" text-anchor="middle" x="453" y="-343.25" font-family="Helvetica,sans-Serif" font-size="10.00" fill="#4a148c">STEP 4 &#160;</text>
<text xml:space="preserve" text-anchor="middle" x="453" y="-332" font-family="Helvetica,sans-Serif" font-size="10.00" fill="#4a148c">Background check: &#160;</text>
<text xml:space="preserve" text-anchor="middle" x="453" y="-320.75" font-family="Helvetica,sans-Serif" font-size="10.00" fill="#4a148c">&#39;Is this key genuine?&#39; &#160;</text>
</g>
<!-- MySQL -->
<g id="node7" class="node">
<title>MySQL</title>
<path fill="#ffe0b2" stroke="#e65100" stroke-width="2" d="M1032.62,-85C1032.62,-89.69 986.18,-93.5 929,-93.5 871.82,-93.5 825.38,-89.69 825.38,-85 825.38,-85 825.38,-8.5 825.38,-8.5 825.38,-3.81 871.82,0 929,0 986.18,0 1032.62,-3.81 1032.62,-8.5 1032.62,-8.5 1032.62,-85 1032.62,-85"/>
<path fill="none" stroke="#e65100" stroke-width="2" d="M1032.62,-85C1032.62,-80.31 986.18,-76.5 929,-76.5 871.82,-76.5 825.38,-80.31 825.38,-85"/>
<text xml:space="preserve" text-anchor="middle" x="929" y="-66.3" font-family="Helvetica,sans-Serif" font-size="11.00" fill="#bf360c">MySQL Database</text>
<text xml:space="preserve" text-anchor="middle" x="929" y="-54.3" font-family="Helvetica,sans-Serif" font-size="11.00" fill="#bf360c">─────────────────</text>
<text xml:space="preserve" text-anchor="middle" x="929" y="-42.3" font-family="Helvetica,sans-Serif" font-size="11.00" fill="#bf360c">All data lives here:</text>
<text xml:space="preserve" text-anchor="middle" x="929" y="-30.3" font-family="Helvetica,sans-Serif" font-size="11.00" fill="#bf360c">users, orders, offers</text>
<text xml:space="preserve" text-anchor="middle" x="929" y="-18.3" font-family="Helvetica,sans-Serif" font-size="11.00" fill="#bf360c">addresses, reviews</text>
</g>
<!-- Symfony&#45;&gt;MySQL -->
<g id="edge7" class="edge">
<title>Symfony&#45;&gt;MySQL</title>
<path fill="none" stroke="#e65100" stroke-width="2.5" d="M1054.87,-206.28C1044.24,-154.54 1035.24,-133.65 1000.02,-102.52"/>
<polygon fill="#e65100" stroke="#e65100" stroke-width="2.5" points="1002.68,-100.19 992.8,-96.36 998.13,-105.51 1002.68,-100.19"/>
<text xml:space="preserve" text-anchor="middle" x="972.12" y="-157.75" font-family="Helvetica,sans-Serif" font-size="10.00" fill="#bf360c"> &#160;STEP 5</text>
<text xml:space="preserve" text-anchor="middle" x="972.12" y="-146.5" font-family="Helvetica,sans-Serif" font-size="10.00" fill="#bf360c"> &#160;Read or save data</text>
<text xml:space="preserve" text-anchor="middle" x="972.12" y="-135.25" font-family="Helvetica,sans-Serif" font-size="10.00" fill="#bf360c"> &#160;(orders, offers...)</text>
</g>
<!-- FCM -->
<g id="node8" class="node">
<title>FCM</title>
<path fill="#e1f5fe" stroke="#0288d1" stroke-width="2" d="M1285.62,-74.75C1285.62,-74.75 1102.38,-74.75 1102.38,-74.75 1096.38,-74.75 1090.38,-68.75 1090.38,-62.75 1090.38,-62.75 1090.38,-30.75 1090.38,-30.75 1090.38,-24.75 1096.38,-18.75 1102.38,-18.75 1102.38,-18.75 1285.62,-18.75 1285.62,-18.75 1291.62,-18.75 1297.62,-24.75 1297.62,-30.75 1297.62,-30.75 1297.62,-62.75 1297.62,-62.75 1297.62,-68.75 1291.62,-74.75 1285.62,-74.75"/>
<text xml:space="preserve" text-anchor="middle" x="1194" y="-60.3" font-family="Helvetica,sans-Serif" font-size="11.00" fill="#01579b">Firebase FCM</text>
<text xml:space="preserve" text-anchor="middle" x="1194" y="-48.3" font-family="Helvetica,sans-Serif" font-size="11.00" fill="#01579b">─────────────────</text>
<text xml:space="preserve" text-anchor="middle" x="1194" y="-36.3" font-family="Helvetica,sans-Serif" font-size="11.00" fill="#01579b">Push Notifications</text>
<text xml:space="preserve" text-anchor="middle" x="1194" y="-24.3" font-family="Helvetica,sans-Serif" font-size="11.00" fill="#01579b">to business staff</text>
</g>
<!-- Symfony&#45;&gt;FCM -->
<g id="edge8" class="edge">
<title>Symfony&#45;&gt;FCM</title>
<path fill="none" stroke="#0288d1" stroke-width="2" d="M1099.84,-206.47C1158.66,-148.95 1172.54,-130.62 1184.19,-87.95"/>
<polygon fill="#0288d1" stroke="#0288d1" stroke-width="2" points="1187.53,-89.04 1186.62,-78.48 1180.75,-87.3 1187.53,-89.04"/>
<text xml:space="preserve" text-anchor="middle" x="1237.12" y="-157.75" font-family="Helvetica,sans-Serif" font-size="10.00" fill="#01579b"> &#160;STEP 6</text>
<text xml:space="preserve" text-anchor="middle" x="1237.12" y="-146.5" font-family="Helvetica,sans-Serif" font-size="10.00" fill="#01579b"> &#160;New order arrived!</text>
<text xml:space="preserve" text-anchor="middle" x="1237.12" y="-135.25" font-family="Helvetica,sans-Serif" font-size="10.00" fill="#01579b"> &#160;Notify staff phone</text>
</g>
</g>
</svg>
