<?xml version="1.0" encoding="UTF-8" standalone="no"?>
<!DOCTYPE svg PUBLIC "-//W3C//DTD SVG 1.1//EN"
 "http://www.w3.org/Graphics/SVG/1.1/DTD/svg11.dtd">
<!-- Generated by graphviz version 15.1.0 (20260618.0150)
 -->
<!-- Title: OrderPlacement Pages: 1 -->
<svg width="551pt" height="788pt"
 viewBox="0.00 0.00 551.00 788.00" xmlns="http://www.w3.org/2000/svg" xmlns:xlink="http://www.w3.org/1999/xlink">
<g id="graph0" class="graph" transform="scale(1 1) rotate(0) translate(43.2 744.45)">
<title>OrderPlacement</title>
<polygon fill="#fafafa" stroke="none" points="-43.2,43.2 -43.2,-744.45 507.57,-744.45 507.57,43.2 -43.2,43.2"/>
<!-- Start -->
<g id="node1" class="node">
<title>Start</title>
<path fill="#bbdefb" stroke="#1565c0" stroke-width="2" d="M377.5,-701.25C377.5,-701.25 12,-701.25 12,-701.25 6,-701.25 0,-695.25 0,-689.25 0,-689.25 0,-677.25 0,-677.25 0,-671.25 6,-665.25 12,-665.25 12,-665.25 377.5,-665.25 377.5,-665.25 383.5,-665.25 389.5,-671.25 389.5,-677.25 389.5,-677.25 389.5,-689.25 389.5,-689.25 389.5,-695.25 383.5,-701.25 377.5,-701.25"/>
<text xml:space="preserve" text-anchor="middle" x="194.75" y="-678.23" font-family="Helvetica Bold" font-size="12.00" fill="#0d47a1">POST /api/orders &#160;{businessPartner, orderItems, deliveryAddress}</text>
</g>
<!-- S1 -->
<g id="node2" class="node">
<title>S1</title>
<path fill="#ffe0b2" stroke="#e65100" stroke-width="2" d="M301.38,-614.25C301.38,-614.25 88.13,-614.25 88.13,-614.25 82.12,-614.25 76.12,-608.25 76.12,-602.25 76.12,-602.25 76.12,-554.5 76.12,-554.5 76.12,-548.5 82.12,-542.5 88.12,-542.5 88.12,-542.5 301.38,-542.5 301.38,-542.5 307.38,-542.5 313.38,-548.5 313.38,-554.5 313.38,-554.5 313.38,-602.25 313.38,-602.25 313.38,-608.25 307.38,-614.25 301.38,-614.25"/>
<text xml:space="preserve" text-anchor="middle" x="194.75" y="-598.85" font-family="Helvetica,sans-Serif" font-size="12.00" fill="#bf360c">Step 1: Validate Stock</text>
<text xml:space="preserve" text-anchor="middle" x="194.75" y="-586.1" font-family="Helvetica,sans-Serif" font-size="12.00" fill="#bf360c">Load each food offer from DB</text>
<text xml:space="preserve" text-anchor="middle" x="194.75" y="-573.35" font-family="Helvetica,sans-Serif" font-size="12.00" fill="#bf360c">Check quantityAvailable &gt;= requested qty</text>
<text xml:space="preserve" text-anchor="middle" x="194.75" y="-560.6" font-family="Helvetica,sans-Serif" font-size="12.00" fill="#bf360c">Snapshot unitPrice from DB</text>
<text xml:space="preserve" text-anchor="middle" x="194.75" y="-547.85" font-family="Helvetica,sans-Serif" font-size="12.00" fill="#bf360c">Decrement quantityAvailable</text>
</g>
<!-- Start&#45;&gt;S1 -->
<g id="edge1" class="edge">
<title>Start&#45;&gt;S1</title>
<path fill="none" stroke="black" stroke-width="1.8" d="M194.75,-664.5C194.75,-664.5 194.75,-627.94 194.75,-627.94"/>
<polygon fill="black" stroke="black" stroke-width="1.8" points="198.25,-627.94 194.75,-617.94 191.25,-627.94 198.25,-627.94"/>
</g>
<!-- StockFail -->
<g id="node3" class="node">
<title>StockFail</title>
<path fill="#ffcdd2" stroke="#c62828" stroke-width="2" d="M195.88,-481.25C195.88,-481.25 99.62,-481.25 99.62,-481.25 93.62,-481.25 87.62,-475.25 87.62,-469.25 87.62,-469.25 87.62,-457.25 87.62,-457.25 87.62,-451.25 93.62,-445.25 99.62,-445.25 99.62,-445.25 195.88,-445.25 195.88,-445.25 201.88,-445.25 207.88,-451.25 207.88,-457.25 207.88,-457.25 207.88,-469.25 207.88,-469.25 207.88,-475.25 201.88,-481.25 195.88,-481.25"/>
<text xml:space="preserve" text-anchor="middle" x="147.75" y="-464.6" font-family="Helvetica,sans-Serif" font-size="12.00" fill="#b71c1c">422 Unprocessable</text>
<text xml:space="preserve" text-anchor="middle" x="147.75" y="-451.85" font-family="Helvetica,sans-Serif" font-size="12.00" fill="#b71c1c">Not enough stock</text>
</g>
<!-- S1&#45;&gt;StockFail -->
<g id="edge2" class="edge">
<title>S1&#45;&gt;StockFail</title>
<path fill="none" stroke="#c62828" stroke-width="1.8" d="M147.75,-541.63C147.75,-541.63 147.75,-494.69 147.75,-494.69"/>
<polygon fill="#c62828" stroke="#c62828" stroke-width="1.8" points="151.25,-494.69 147.75,-484.69 144.25,-494.69 151.25,-494.69"/>
<text xml:space="preserve" text-anchor="middle" x="174.38" y="-508" font-family="Helvetica,sans-Serif" font-size="10.00" fill="#c62828">Qty too high</text>
</g>
<!-- S2 -->
<g id="node4" class="node">
<title>S2</title>
<path fill="#ffe0b2" stroke="#e65100" stroke-width="2" d="M441.5,-481.25C441.5,-481.25 256,-481.25 256,-481.25 250,-481.25 244,-475.25 244,-469.25 244,-469.25 244,-457.25 244,-457.25 244,-451.25 250,-445.25 256,-445.25 256,-445.25 441.5,-445.25 441.5,-445.25 447.5,-445.25 453.5,-451.25 453.5,-457.25 453.5,-457.25 453.5,-469.25 453.5,-469.25 453.5,-475.25 447.5,-481.25 441.5,-481.25"/>
<text xml:space="preserve" text-anchor="middle" x="348.75" y="-464.6" font-family="Helvetica,sans-Serif" font-size="12.00" fill="#bf360c">Step 2: Calculate Subtotal</text>
<text xml:space="preserve" text-anchor="middle" x="348.75" y="-451.85" font-family="Helvetica,sans-Serif" font-size="12.00" fill="#bf360c">sum(quantity x unitPrice) server&#45;side</text>
</g>
<!-- S1&#45;&gt;S2 -->
<g id="edge3" class="edge">
<title>S1&#45;&gt;S2</title>
<path fill="none" stroke="#2e7d32" stroke-width="1.8" d="M278.69,-541.63C278.69,-541.63 278.69,-494.69 278.69,-494.69"/>
<polygon fill="#2e7d32" stroke="#2e7d32" stroke-width="1.8" points="282.19,-494.69 278.69,-484.69 275.19,-494.69 282.19,-494.69"/>
<text xml:space="preserve" text-anchor="middle" x="316.12" y="-508" font-family="Helvetica,sans-Serif" font-size="10.00" fill="#2e7d32">Stock OK</text>
</g>
<!-- S3 -->
<g id="node5" class="node">
<title>S3</title>
<path fill="#fff9c4" stroke="#f57f17" stroke-width="2" d="M452.38,-394.25C452.38,-394.25 245.12,-394.25 245.12,-394.25 239.12,-394.25 233.12,-388.25 233.12,-382.25 233.12,-382.25 233.12,-360 233.12,-360 233.12,-354 239.12,-348 245.12,-348 245.12,-348 452.38,-348 452.38,-348 458.38,-348 464.38,-354 464.38,-360 464.38,-360 464.38,-382.25 464.38,-382.25 464.38,-388.25 458.38,-394.25 452.38,-394.25"/>
<text xml:space="preserve" text-anchor="middle" x="348.75" y="-378.85" font-family="Helvetica,sans-Serif" font-size="12.00" fill="#e65100">Step 3: Snapshot Delivery Address</text>
<text xml:space="preserve" text-anchor="middle" x="348.75" y="-366.1" font-family="Helvetica,sans-Serif" font-size="12.00" fill="#e65100">Save plain text copy of address</text>
<text xml:space="preserve" text-anchor="middle" x="348.75" y="-353.35" font-family="Helvetica,sans-Serif" font-size="12.00" fill="#e65100">(order history survives address changes)</text>
</g>
<!-- S2&#45;&gt;S3 -->
<g id="edge4" class="edge">
<title>S2&#45;&gt;S3</title>
<path fill="none" stroke="black" stroke-width="1.8" d="M348.75,-444.61C348.75,-444.61 348.75,-407.72 348.75,-407.72"/>
<polygon fill="black" stroke="black" stroke-width="1.8" points="352.25,-407.72 348.75,-397.72 345.25,-407.72 352.25,-407.72"/>
</g>
<!-- S4 -->
<g id="node6" class="node">
<title>S4</title>
<path fill="#fff9c4" stroke="#f57f17" stroke-width="2" d="M432.88,-297C432.88,-297 264.62,-297 264.62,-297 258.62,-297 252.62,-291 252.62,-285 252.62,-285 252.62,-273 252.62,-273 252.62,-267 258.62,-261 264.62,-261 264.62,-261 432.88,-261 432.88,-261 438.88,-261 444.88,-267 444.88,-273 444.88,-273 444.88,-285 444.88,-285 444.88,-291 438.88,-297 432.88,-297"/>
<text xml:space="preserve" text-anchor="middle" x="348.75" y="-280.35" font-family="Helvetica,sans-Serif" font-size="12.00" fill="#e65100">Step 4: Estimate Delivery Time</text>
<text xml:space="preserve" text-anchor="middle" x="348.75" y="-267.6" font-family="Helvetica,sans-Serif" font-size="12.00" fill="#e65100">business lat/lng to delivery lat/lng</text>
</g>
<!-- S3&#45;&gt;S4 -->
<g id="edge5" class="edge">
<title>S3&#45;&gt;S4</title>
<path fill="none" stroke="black" stroke-width="1.8" d="M348.75,-347.4C348.75,-347.4 348.75,-310.43 348.75,-310.43"/>
<polygon fill="black" stroke="black" stroke-width="1.8" points="352.25,-310.43 348.75,-300.43 345.25,-310.43 352.25,-310.43"/>
</g>
<!-- S5 -->
<g id="node7" class="node">
<title>S5</title>
<path fill="#ffe0b2" stroke="#e65100" stroke-width="2" d="M421.25,-210C421.25,-210 276.25,-210 276.25,-210 270.25,-210 264.25,-204 264.25,-198 264.25,-198 264.25,-186 264.25,-186 264.25,-180 270.25,-174 276.25,-174 276.25,-174 421.25,-174 421.25,-174 427.25,-174 433.25,-180 433.25,-186 433.25,-186 433.25,-198 433.25,-198 433.25,-204 427.25,-210 421.25,-210"/>
<text xml:space="preserve" text-anchor="middle" x="348.75" y="-193.35" font-family="Helvetica,sans-Serif" font-size="12.00" fill="#bf360c">Step 5: Save to MySQL</text>
<text xml:space="preserve" text-anchor="middle" x="348.75" y="-180.6" font-family="Helvetica,sans-Serif" font-size="12.00" fill="#bf360c">Order + OrderItems persisted</text>
</g>
<!-- S4&#45;&gt;S5 -->
<g id="edge6" class="edge">
<title>S4&#45;&gt;S5</title>
<path fill="none" stroke="black" stroke-width="1.8" d="M348.75,-260.12C348.75,-260.12 348.75,-223.57 348.75,-223.57"/>
<polygon fill="black" stroke="black" stroke-width="1.8" points="352.25,-223.57 348.75,-213.57 345.25,-223.57 352.25,-223.57"/>
</g>
<!-- S6 -->
<g id="node8" class="node">
<title>S6</title>
<path fill="#b3e5fc" stroke="#0288d1" stroke-width="2" d="M447.88,-123C447.88,-123 249.62,-123 249.62,-123 243.62,-123 237.62,-117 237.62,-111 237.62,-111 237.62,-99 237.62,-99 237.62,-93 243.62,-87 249.62,-87 249.62,-87 447.88,-87 447.88,-87 453.88,-87 459.88,-93 459.88,-99 459.88,-99 459.88,-111 459.88,-111 459.88,-117 453.88,-123 447.88,-123"/>
<text xml:space="preserve" text-anchor="middle" x="348.75" y="-106.35" font-family="Helvetica,sans-Serif" font-size="12.00" fill="#01579b">Step 6: Push Notification</text>
<text xml:space="preserve" text-anchor="middle" x="348.75" y="-93.6" font-family="Helvetica,sans-Serif" font-size="12.00" fill="#01579b">Send FCM to all business staff devices</text>
</g>
<!-- S5&#45;&gt;S6 -->
<g id="edge7" class="edge">
<title>S5&#45;&gt;S6</title>
<path fill="none" stroke="black" stroke-width="1.8" d="M348.75,-173.12C348.75,-173.12 348.75,-136.57 348.75,-136.57"/>
<polygon fill="black" stroke="black" stroke-width="1.8" points="352.25,-136.57 348.75,-126.57 345.25,-136.57 352.25,-136.57"/>
</g>
<!-- Done -->
<g id="node9" class="node">
<title>Done</title>
<path fill="#dcedc8" stroke="#2e7d32" stroke-width="2" d="M451.62,-36C451.62,-36 245.88,-36 245.88,-36 239.88,-36 233.88,-30 233.88,-24 233.88,-24 233.88,-12 233.88,-12 233.88,-6 239.88,0 245.88,0 245.88,0 451.62,0 451.62,0 457.62,0 463.62,-6 463.62,-12 463.62,-12 463.62,-24 463.62,-24 463.62,-30 457.62,-36 451.62,-36"/>
<text xml:space="preserve" text-anchor="middle" x="348.75" y="-19.35" font-family="Helvetica Bold" font-size="12.00" fill="#1b5e20">201 Created</text>
<text xml:space="preserve" text-anchor="middle" x="348.75" y="-6.6" font-family="Helvetica Bold" font-size="12.00" fill="#1b5e20">Order appears in customer My Orders</text>
</g>
<!-- S6&#45;&gt;Done -->
<g id="edge8" class="edge">
<title>S6&#45;&gt;Done</title>
<path fill="none" stroke="black" stroke-width="1.8" d="M348.75,-86.12C348.75,-86.12 348.75,-49.57 348.75,-49.57"/>
<polygon fill="black" stroke="black" stroke-width="1.8" points="352.25,-49.57 348.75,-39.57 345.25,-49.57 352.25,-49.57"/>
</g>
</g>
</svg>
